HIERARCHY
ROOT hip
{
  OFFSET 0 0 0
  CHANNELS 6 Xposition Yposition Zposition Zrotation Yrotation Xrotation
  JOINT abdomen
  {
    OFFSET 0 20.6881 -0.73152
    CHANNELS 3 Zrotation Xrotation Yrotation
    JOINT chest
    {
      OFFSET 0 11.7043 -0.48768
      CHANNELS 3 Zrotation Xrotation Yrotation
      JOINT neck
      {
        OFFSET 0 22.1894 -2.19456
        CHANNELS 3 Zrotation Xrotation Yrotation
        JOINT head
        {
          OFFSET -0.24384 7.07133 1.2192
          CHANNELS 3 Zrotation Xrotation Yrotation
          JOINT leftEye
          {
            OFFSET 4.14528 8.04674 8.04672
            CHANNELS 3 Zrotation Xrotation Yrotation
            End Site
            {
              OFFSET 1 0 0
            }
          }
          JOINT rightEye
          {
            OFFSET -3.6576 8.04674 8.04672
            CHANNELS 3 Zrotation Xrotation Yrotation
            End Site
            {
              OFFSET 1 0 0
            }
          }
        }
      }
      JOINT rCollar
      {
        OFFSET -2.68224 19.2634 -4.8768
        CHANNELS 3 Zrotation Xrotation Yrotation
        JOINT rShldr
        {
          OFFSET -8.77824 -1.95073 1.46304
          CHANNELS 3 Zrotation Xrotation Yrotation
          JOINT rForeArm
          {
            OFFSET -28.1742 -1.7115 0.48768
            CHANNELS 3 Zrotation Xrotation Yrotation
            JOINT rHand
            {
              OFFSET -22.5879 0.773209 7.07136
              CHANNELS 3 Zrotation Xrotation Yrotation
              JOINT rThumb1
              {
                OFFSET -1.2192 -0.487915 3.41376
                CHANNELS 3 Zrotation Xrotation Yrotation
                JOINT rThumb2
                {
                  OFFSET -3.37035 -0.52449 3.41376
                  CHANNELS 3 Zrotation Xrotation Yrotation
                  End Site
                  {
                    OFFSET -1.78271 -1.18214 1.43049
                  }
                }
              }
              JOINT rIndex1
              {
                OFFSET -7.75947 0.938293 5.60832
                CHANNELS 3 Zrotation Xrotation Yrotation
                JOINT rIndex2
                {
                  OFFSET -2.54057 -0.884171 1.56538
                  CHANNELS 3 Zrotation Xrotation Yrotation
                  End Site
                  {
                    OFFSET -1.62519 -0.234802 1.16502
                  }
                }
              }
              JOINT rMid1
              {
                OFFSET -8.24714 1.18213 3.41376
                CHANNELS 3 Zrotation Xrotation Yrotation
                JOINT rMid2
                {
                  OFFSET -3.10165 -0.590103 1.0647
                  CHANNELS 3 Zrotation Xrotation Yrotation
                  End Site
                  {
                    OFFSET -2.48547 -0.328903 0.83742
                  }
                }
              }
              JOINT rRing1
              {
                OFFSET -8.82822 0.546677 1.51678
                CHANNELS 3 Zrotation Xrotation Yrotation
                JOINT rRing2
                {
                  OFFSET -2.60934 -0.819778 -0.0198488
                  CHANNELS 3 Zrotation Xrotation Yrotation
                  End Site
                  {
                    OFFSET -2.33842 -0.294052 0.168128
                  }
                }
              }
              JOINT rPinky1
              {
                OFFSET -8.27202 -0.0477905 -0.4584
                CHANNELS 3 Zrotation Xrotation Yrotation
                JOINT rPinky2
                {
                  OFFSET -1.82734 -0.647385 -0.700984
                  CHANNELS 3 Zrotation Xrotation Yrotation
                  End Site
                  {
                    OFFSET -1.69225 -0.51767 -0.607171
                  }
                }
              }
            }
          }
        }
      }
      JOINT lCollar
      {
        OFFSET 2.68224 19.2634 -4.8768
        CHANNELS 3 Zrotation Xrotation Yrotation
        JOINT lShldr
        {
          OFFSET 8.77824 -1.95073 1.46304
          CHANNELS 3 Zrotation Xrotation Yrotation
          JOINT lForeArm
          {
            OFFSET 28.1742 -1.7115 0.48768
            CHANNELS 3 Zrotation Xrotation Yrotation
            JOINT lHand
            {
              OFFSET 22.5879 0.773209 7.07136
              CHANNELS 3 Zrotation Xrotation Yrotation
              JOINT lThumb1
              {
                OFFSET 1.2192 -0.487915 3.41376
                CHANNELS 3 Zrotation Xrotation Yrotation
                JOINT lThumb2
                {
                  OFFSET 3.37035 -0.52449 3.41376
                  CHANNELS 3 Zrotation Xrotation Yrotation
                  End Site
                  {
                    OFFSET 1.78271 -1.18214 1.43049
                  }
                }
              }
              JOINT lIndex1
              {
                OFFSET 7.75947 0.938293 5.60832
                CHANNELS 3 Zrotation Xrotation Yrotation
                JOINT lIndex2
                {
                  OFFSET 2.54057 -0.884171 1.56538
                  CHANNELS 3 Zrotation Xrotation Yrotation
                  End Site
                  {
                    OFFSET 1.62519 -0.234802 1.16502
                  }
                }
              }
              JOINT lMid1
              {
                OFFSET 8.24714 1.18213 3.41376
                CHANNELS 3 Zrotation Xrotation Yrotation
                JOINT lMid2
                {
                  OFFSET 3.10165 -0.590103 1.0647
                  CHANNELS 3 Zrotation Xrotation Yrotation
                  End Site
                  {
                    OFFSET 2.48547 -0.328903 0.83742
                  }
                }
              }
              JOINT lRing1
              {
                OFFSET 8.82822 0.546677 1.51678
                CHANNELS 3 Zrotation Xrotation Yrotation
                JOINT lRing2
                {
                  OFFSET 2.60934 -0.819778 -0.0198488
                  CHANNELS 3 Zrotation Xrotation Yrotation
                  End Site
                  {
                    OFFSET 2.33842 -0.294052 0.168128
                  }
                }
              }
              JOINT lPinky1
              {
                OFFSET 8.27202 -0.0477905 -0.4584
                CHANNELS 3 Zrotation Xrotation Yrotation
                JOINT lPinky2
                {
                  OFFSET 1.82734 -0.647385 -0.700984
                  CHANNELS 3 Zrotation Xrotation Yrotation
                  End Site
                  {
                    OFFSET 1.69225 -0.51767 -0.607171
                  }
                }
              }
            }
          }
        }
      }
    }
  }
  JOINT rButtock
  {
    OFFSET -8.77824 4.35084 1.2192
    CHANNELS 3 Zrotation Xrotation Yrotation
    JOINT rThigh
    {
      OFFSET 0 -1.70687 -2.19456
      CHANNELS 3 Zrotation Xrotation Yrotation
      JOINT rShin
      {
        OFFSET 0 -36.8199 0.73152
        CHANNELS 3 Zrotation Xrotation Yrotation
        JOINT rFoot
        {
          OFFSET 0.73152 -45.1104 -5.12064
          CHANNELS 3 Zrotation Xrotation Yrotation
          End Site
          {
            OFFSET -1.1221 -3.69964 12.103
          }
        }
      }
    }
  }
  JOINT lButtock
  {
    OFFSET 8.77824 4.35084 1.2192
    CHANNELS 3 Zrotation Xrotation Yrotation
    JOINT lThigh
    {
      OFFSET 0 -1.70687 -2.19456
      CHANNELS 3 Zrotation Xrotation Yrotation
      JOINT lShin
      {
        OFFSET 0 -36.8199 0.73152
        CHANNELS 3 Zrotation Xrotation Yrotation
        JOINT lFoot
        {
          OFFSET -0.73152 -45.1104 -5.12064
          CHANNELS 3 Zrotation Xrotation Yrotation
          End Site
          {
            OFFSET 1.1221 -3.69964 12.103
          }
        }
      }
    }
  }
}
MOTION
Frames:	6
Frame Time:	0.00833333
173.451 84.7658 44.8872 0.0 0.0 0.0 -0.385196 -0.00168814 -0.0109958 -0.106234 -0.00256713 -0.0184048 1.53318e-15 0.0 1.2424e-16 4.63727e-15 3.18055e-15 3.69615e-16 -0.0 0.0 0.0 -0.0 0.0 0.0 7.44159e-16 3.49426e-18 1.98785e-16 1.82588e-14 3.60297e-16 2.18663e-15 2.8292e-13 -8.0309e-14 0.0 3.22667e-12 1.05331e-13 2.60805e-13 7.61066e-12 4.63426e-14 5.69319e-13 1.31365e-11 7.95139e-14 9.75635e-13 7.61663e-12 4.73108e-14 5.62958e-13 7.73091 5.47488 0.417314 7.61166e-12 4.7112e-14 5.66139e-13 2.90554 0.965183 0.102902 7.62243e-12 4.65156e-14 5.65344e-13 10.2786 0.731801 0.0259123 7.60769e-12 4.6118e-14 5.69319e-13 2.22167 -0.733487 -0.20892 6.47381e-16 2.71776e-18 -9.93923e-17 1.43484e-14 1.67725e-16 3.97569e-16 2.8133e-13 8.62725e-14 3.49861e-14 3.22482e-12 -7.84951e-14 2.29e-13 7.60896e-12 1.06901e-14 5.59778e-13 1.31424e-11 1.27222e-14 9.7643e-13 7.60391e-12 1.11319e-14 5.725e-13 -7.73091 5.47488 -0.417314 7.60888e-12 1.11319e-14 5.62958e-13 -2.90554 0.965183 -0.102902 7.60205e-12 1.11319e-14 5.63753e-13 -10.2786 0.731801 -0.0259123 7.61345e-12 1.23246e-14 5.62958e-13 -2.22167 -0.733487 0.20892 -2.03217e-16 0.0 -3.88251e-19 0.221634 -2.58356 -0.0280806 -0.00748946 -0.872628 -0.065139 -0.513094 3.45577 0.129345 2.03217e-16 0.0 3.88251e-19 -0.807791 -4.07084 0.0653918 0.00325587 1.82138 0.024433 0.517728 2.24911 -0.105183
170.188 82.7709 38.3066 -60.1009 -83.3395 68.4679 2.72187 -0.693955 1.12635 0.236752 -1.02371 0.296361 -2.42494 -0.68827 -2.09784 3.16084 -2.08417 -3.18295 -0.0 0.0 0.0 -0.0 0.0 0.0 -5.47605e-14 -5.56477e-13 -3.4997e-15 19.8009 3.71518 3.18708 -5.01507 -2.4562 7.64306 -0.00130201 0.168577 0.0236431 5.08511e-10 2.63705e-10 3.68558e-10 8.7971e-10 4.5662e-10 6.35138e-10 5.08519e-10 2.63706e-10 3.68548e-10 7.73091 5.47488 0.417314 5.08512e-10 2.63705e-10 3.68558e-10 2.90554 0.965183 0.102902 5.0852e-10 2.63705e-10 3.68556e-10 10.2786 0.731801 0.0259123 5.08508e-10 2.63706e-10 3.68564e-10 2.22167 -0.733487 -0.20892 -5.48682e-14 -5.56477e-13 -3.78778e-15 -18.4226 -0.616383 3.17287 4.79418 -2.30291 -7.3535 -0.0404878 4.76109 -0.662031 -2.18538e-10 -8.68314e-10 -6.97288e-10 -3.87034e-10 -1.48898e-09 -1.20215e-09 -2.18542e-10 -8.68314e-10 -6.97279e-10 -7.73091 5.47488 -0.417314 -2.18537e-10 -8.6831e-10 -6.97286e-10 -2.90554 0.965183 -0.102902 -2.18546e-10 -8.68314e-10 -6.97285e-10 -10.2786 0.731801 -0.0259123 -2.18535e-10 -8.68313e-10 -6.97286e-10 -2.22167 -0.733487 0.20892 -2.03217e-16 0.0 -3.88251e-19 3.6966 -6.30255 0.477041 -0.00455645 3.8949 -0.0205128 -0.548442 1.36052 -1.70638 2.03217e-16 0.0 3.88251e-19 2.86555 -11.2194 0.262833 0.0130764 17.768 -0.190649 0.50298 2.68235 -0.165257
169.36 82.7836 38.1776 -62.3534 -83.3341 70.5635 6.02838 -1.42738 2.31547 0.621273 -2.10136 0.62598 -5.04315 -1.41754 -4.31445 6.24144 -4.25587 -6.55837 -0.0 0.0 0.0 -0.0 0.0 0.0 -1.17072e-13 -1.18838e-12 -6.86428e-15 40.2915 7.5884 6.57498 -9.5377 -4.84383 15.6717 -0.00376339 0.441137 0.0618693 1.06743e-09 5.62491e-10 7.73454e-10 1.84667e-09 9.73964e-10 1.33288e-09 1.06744e-09 5.62491e-10 7.73439e-10 7.73091 5.47488 0.417314 1.06743e-09 5.6249e-10 7.73456e-10 2.90554 0.965183 0.102902 1.06744e-09 5.6249e-10 7.73454e-10 10.2786 0.731801 0.0259123 1.06743e-09 5.62492e-10 7.73465e-10 2.22167 -0.733487 -0.20892 -1.17191e-13 -1.18838e-12 -7.14382e-15 -37.8526 -1.19507 6.51114 9.17545 -4.57009 -15.0961 0.0427865 9.9827 -1.40482 -4.81786e-10 -1.8341e-09 -1.47486e-09 -8.5235e-10 -3.14506e-09 -2.54269e-09 -4.8179e-10 -1.8341e-09 -1.47485e-09 -7.73091 5.47488 -0.417314 -4.81785e-10 -1.83409e-09 -1.47485e-09 -2.90554 0.965183 -0.102902 -4.81794e-10 -1.8341e-09 -1.47485e-09 -10.2786 0.731801 -0.0259123 -4.81786e-10 -1.8341e-09 -1.47485e-09 -2.22167 -0.733487 0.20892 -2.03217e-16 0.0 -3.88251e-19 7.429 -10.2803 1.01069 -0.0098312 8.95015 0.0260779 -0.731045 -0.834863 -3.65218 2.03217e-16 0.0 3.88251e-19 6.80187 -18.7276 0.481003 0.179147 34.6548 -0.48573 0.487091 3.17813 -0.257358
168.559 82.7902 38.0629 -64.7886 -83.4164 72.8828 9.01843 -2.07523 3.40303 0.95642 -3.06562 0.927077 -7.42576 -2.05374 -6.29711 8.78797 -6.17517 -9.59874 -0.0 0.0 0.0 -0.0 0.0 0.0 -1.6577e-13 -1.66944e-12 -1.08967e-14 58.1496 11.0064 9.72165 -13.1259 -6.84528 23.0819 -0.00432342 0.50573 0.0709319 1.51031e-09 7.91022e-10 1.10454e-09 2.61286e-09 1.3697e-09 1.90346e-09 1.51032e-09 7.91022e-10 1.10452e-09 7.73091 5.47488 0.417314 1.51031e-09 7.91021e-10 1.10454e-09 2.90554 0.965183 0.102902 1.51031e-09 7.91022e-10 1.10454e-09 10.2786 0.731801 0.0259123 1.51031e-09 7.91025e-10 1.10455e-09 2.22167 -0.733487 -0.20892 -1.65899e-13 -1.66944e-12 -1.11646e-14 -55.064 -1.82648 9.52293 12.6485 -6.45452 -22.1906 0.21749 14.2755 -2.04233 -6.70831e-10 -2.60496e-09 -2.09298e-09 -1.18739e-09 -4.46695e-09 -3.60839e-09 -6.70835e-10 -2.60496e-09 -2.09298e-09 -7.73091 5.47488 -0.417314 -6.7083e-10 -2.60495e-09 -2.09298e-09 -2.90554 0.965183 -0.102902 -6.70841e-10 -2.60496e-09 -2.09298e-09 -10.2786 0.731801 -0.0259123 -6.70833e-10 -2.60496e-09 -2.09298e-09 -2.22167 -0.733487 0.20892 -2.03217e-16 0.0 -3.88251e-19 10.8484 -13.7365 1.52212 -0.021299 13.43 0.0708028 -1.0215 -2.81574 -5.38243 2.03217e-16 0.0 3.88251e-19 10.375 -25.5151 0.712465 0.555466 49.6579 -0.916846 0.476214 3.5488 -0.285572
167.741 82.8243 37.9355 -67.2136 -83.4132 75.1674 11.1603 -2.51208 4.23482 1.14503 -3.74671 1.15577 -9.11149 -2.46792 -7.69138 10.4826 -7.53582 -11.7552 -0.0 0.0 0.0 -0.0 0.0 0.0 -1.80437e-13 -1.77336e-12 -1.65985e-14 70.2898 13.4121 12.1185 -15.5944 -8.31581 28.8211 -3.11521e-06 0.0504046 0.00708391 1.66309e-09 8.43919e-10 1.25109e-09 2.87714e-09 1.46141e-09 2.15613e-09 1.6631e-09 8.43918e-10 1.25107e-09 7.73091 5.47488 0.417314 1.66309e-09 8.43917e-10 1.25109e-09 2.90554 0.965183 0.102902 1.66309e-09 8.43918e-10 1.25109e-09 10.2786 0.731801 0.0259123 1.66308e-09 8.43922e-10 1.25111e-09 2.22167 -0.733487 -0.20892 -1.80568e-13 -1.77336e-12 -1.6847e-14 -66.8343 -2.60494 11.7169 14.9827 -7.77538 -27.553 0.335466 16.2557 -2.34859 -6.7437e-10 -2.88854e-09 -2.31252e-09 -1.19672e-09 -4.95334e-09 -3.98698e-09 -6.74373e-10 -2.88854e-09 -2.31252e-09 -7.73091 5.47488 -0.417314 -6.74369e-10 -2.88853e-09 -2.31252e-09 -2.90554 0.965183 -0.102902 -6.7438e-10 -2.88854e-09 -2.31252e-09 -10.2786 0.731801 -0.0259123 -6.74373e-10 -2.88854e-09 -2.31252e-09 -2.22167 -0.733487 0.20892 -2.03217e-16 0.0 -3.88251e-19 13.3431 -15.8925 1.94668 -0.0328765 16.4712 0.108632 -1.3009 -4.27657 -6.56395 2.03217e-16 0.0 3.88251e-19 12.9319 -30.502 0.933958 1.08205 59.9547 -1.45278 0.474269 3.60668 -0.153835
166.931 82.8461 37.8142 -69.4977 -83.4089 77.33 12.0915 -2.65332 4.71087 1.11642 -4.03136 1.2836 -9.77554 -2.57329 -8.262 11.2031 -8.16608 -12.6478 -0.0 0.0 0.0 -0.0 0.0 0.0 -1.41868e-13 -1.27094e-12 -2.68379e-14 74.8167 14.508 13.3713 -16.9633 -9.29425 32.1457 0.00480506 -1.17309 -0.16469 1.33906e-09 5.95002e-10 1.12554e-09 2.3164e-09 1.03082e-09 1.94005e-09 1.33907e-09 5.95001e-10 1.12552e-09 7.73091 5.47488 0.417314 1.33906e-09 5.95e-10 1.12555e-09 2.90554 0.965183 0.102902 1.33906e-09 5.95001e-10 1.12554e-09 10.2786 0.731801 0.0259123 1.33906e-09 5.95004e-10 1.12556e-09 2.22167 -0.733487 -0.20892 -1.41992e-13 -1.27094e-12 -2.70479e-14 -71.0155 -3.62466 12.7626 16.1543 -8.53192 -30.3841 0.279753 15.0051 -2.15601 -3.36584e-10 -2.41018e-09 -1.90142e-09 -6.08074e-10 -4.13302e-09 -3.27839e-09 -3.36586e-10 -2.41018e-09 -1.90142e-09 -7.73091 5.47488 -0.417314 -3.36582e-10 -2.41017e-09 -1.90142e-09 -2.90554 0.965183 -0.102902 -3.36596e-10 -2.41018e-09 -1.90142e-09 -10.2786 0.731801 -0.0259123 -3.36587e-10 -2.41018e-09 -1.90142e-09 -2.22167 -0.733487 0.20892 -2.03217e-16 0.0 -3.88251e-19 14.4792 -16.2209 2.23915 -0.0371098 17.4984 0.134825 -1.44013 -5.02898 -6.97057 2.03217e-16 0.0 3.88251e-19 14.0134 -32.9813 1.11366 1.38617 63.716 -1.75587 0.48831 3.21048 0.214879
